<?xml version="1.0" ?><!DOCTYPE svg  PUBLIC '-//W3C//DTD SVG 1.1//EN'  'http://www.w3.org/Graphics/SVG/1.1/DTD/svg11.dtd'><svg enable-background="new 0 0 48 48" height="48px" id="_x3C_Layer_x3E_" version="1.1" viewBox="0 0 48 48" width="48px" xml:space="preserve" xmlns="http://www.w3.org/2000/svg" xmlns:xlink="http://www.w3.org/1999/xlink"><g id="tick_x2C__check_mark"><path d="M24,46C11.869,46,2,36.131,2,24S11.869,2,24,2c6.219,0,12.175,2.65,16.342,7.271   c0.186,0.205,0.169,0.521-0.036,0.706c-0.206,0.185-0.522,0.168-0.706-0.036C35.622,5.53,29.937,3,24,3C12.421,3,3,12.42,3,24   s9.421,21,21,21s21-9.42,21-21c0-2.299-0.369-4.56-1.098-6.72c-0.089-0.262,0.052-0.545,0.313-0.633   c0.268-0.088,0.546,0.052,0.634,0.314C45.613,19.224,46,21.592,46,24C46,36.131,36.131,46,24,46z" fill="#546E7A"/><g><g><path d="M23.249,35.005c-0.735,0-1.471-0.272-2.018-0.817v0l-8.886-8.85c-0.545-0.542-0.846-1.265-0.846-2.035     c0-0.769,0.301-1.491,0.846-2.033c1.077-1.074,2.954-1.076,4.035,0l6.463,6.436c0.205,0.204,0.606,0.205,0.81,0l16.966-16.896     c1.094-1.089,2.941-1.089,4.035,0c0.545,0.542,0.846,1.265,0.846,2.034c0,0.769-0.301,1.491-0.846,2.033L25.268,34.188     C24.721,34.733,23.984,35.005,23.249,35.005z M14.363,21.437c-0.495,0-0.961,0.193-1.312,0.542     c-0.355,0.354-0.552,0.824-0.552,1.325s0.195,0.972,0.551,1.325l8.886,8.851c0.699,0.695,1.927,0.696,2.626,0L43.949,14.17     c0.354-0.353,0.551-0.824,0.551-1.325s-0.195-0.972-0.551-1.325c-0.699-0.696-1.926-0.697-2.625,0L24.359,28.416     c-0.59,0.59-1.63,0.59-2.222,0l-6.462-6.436C15.324,21.629,14.858,21.437,14.363,21.437z" fill="#546E7A"/></g></g></g></svg>